# xmcd
#
# Track frame offsets: 
#        150
#        12188
#        23909
#        34458
#        44265
#        57460
#        64148
#        80335
#        90008
#        100746
#        111956
#        121991
#        146260
#        156595
#
# Disc length: 2247 seconds
#
# Revision: 0
# Processed by: cddbd v1.5.1PL0 Copyright (c) Steve Scherf et al.
# Submitted via: ExactAudioCopy v0.90b4
#
DISCID=b208c50e
DTITLE=Pray On, My Child - The Staple Singers
DYEAR=2002
DGENRE=Gospel
TTITLE0=Will the Circle Be Unbroken
TTITLE1=Swing Down, Sweet Chariot
TTITLE2=Don't Knock
TTITLE3=Two Wings
TTITLE4=Uncloudy Day
TTITLE5=Get Right Church, Let's Go Home
TTITLE6=The Day Has Passed and Gone
TTITLE7=This May Be the Last Time
TTITLE8=I Know I Got Religion
TTITLE9=Love Is the Way
TTITLE10=I'm Leaving
TTITLE11=Too Close
TTITLE12=On My Way to Heaven
TTITLE13=Pray On, My Child
EXTD=
EXTT0=
EXTT1=
EXTT2=
EXTT3=
EXTT4=
EXTT5=
EXTT6=
EXTT7=
EXTT8=
EXTT9=
EXTT10=
EXTT11=
EXTT12=
EXTT13=
PLAYORDER=
